<?xml version="1.0" encoding="UTF-8" standalone="no"?>
<svg
   width="443.30197"
   height="443.302"
   viewBox="0 0 443.30197 443.302"
   version="1.1"
   id="svg6"
   xmlns="http://www.w3.org/2000/svg"
   xmlns:svg="http://www.w3.org/2000/svg">
  <defs
     id="defs10">
    <rect
       x="693.07465"
       y="257.68158"
       width="350.9801"
       height="211.03233"
       id="rect999" />
    <rect
       x="693.07465"
       y="257.68158"
       width="350.9801"
       height="211.03233"
       id="rect999-6" />
  </defs>
  <rect
     style="fill:#d41c2e;stroke:#d41c2e;stroke-width:0.433208;stroke-linecap:round;stroke-linejoin:round;stroke-miterlimit:1;stroke-opacity:1;paint-order:stroke fill markers"
     id="rect887"
     width="442.86874"
     height="442.8688"
     x="0.21661377"
     y="0.21661377" />
  <text
     xml:space="preserve"
     id="text997"
     style="font-weight:600;font-size:96px;line-height:1.5;font-family:'Source Serif Pro';-inkscape-font-specification:'Source Serif Pro Semi-Bold';text-align:justify;letter-spacing:-2.43518px;white-space:pre;shape-inside:url(#rect999);display:inline;fill:#ffffff;stroke:#ffffff;stroke-width:1.00157;stroke-linecap:round;stroke-linejoin:round;stroke-miterlimit:1;stroke-opacity:1;paint-order:stroke fill markers"
     transform="matrix(1.2152137,0,0,1.1033478,-776.15686,-41.717135)"><tspan
       x="693.07422"
       y="351.76164"
       id="tspan5477"><tspan
         style="font-weight:normal;-inkscape-font-specification:'Source Serif Pro'"
         id="tspan5475">Sci</tspan></tspan></text>
  <text
     xml:space="preserve"
     id="text997-9"
     style="font-weight:600;font-size:96px;line-height:1.5;font-family:'Source Serif Pro';-inkscape-font-specification:'Source Serif Pro Semi-Bold';text-align:justify;letter-spacing:-2.43013px;white-space:pre;shape-inside:url(#rect999-6);display:inline;fill:#ffffff;stroke:#ffffff;stroke-width:1.00157;stroke-linecap:round;stroke-linejoin:round;stroke-miterlimit:1;stroke-opacity:1;paint-order:stroke fill markers"
     transform="matrix(1.1539702,0,0,1.1876686,-592.31577,-71.277725)"><tspan
       x="693.07422"
       y="351.76164"
       id="tspan5481"><tspan
         style="font-weight:normal;-inkscape-font-specification:'Source Serif Pro'"
         id="tspan5479">Vox</tspan></tspan></text>
  <g
     id="g3416"
     transform="matrix(0.18383567,0,0,0.18383567,123.45333,77.093745)"
     style="fill:#ffffff">
    <path
       d="m 742.28,929.98 c -1.22,-0.49 -18.09,-13.64 -37.5,-29.22 C 627.81,838.95 509.31,743.5 506.09,740.72 c -3.97,-3.43 -2.08,-3.54 -29.59,1.74 -19.22,3.69 -30.76,5.86 -137,25.67 -32.45,6.05 -61.07,11.02 -63.61,11.05 -8.32,0.09 -10.76,-1.91 -29.27,-24.09 C 237.16,743.77 217.95,720.78 203.92,704 115.52,598.27 101.37,581.15 99.77,578.04 98.11,574.79 98,568.13 98,469.98 V 365.39 l 2.49,-4.94 c 2.16,-4.31 4.76,-6.63 20.12,-17.95 9.7,-7.15 24.67,-18.2 33.26,-24.55 45.35,-33.52 85.44,-63.15 118.13,-87.3 20.08,-14.83 40.77,-30.15 46,-34.04 5.23,-3.88 11.06,-7.86 12.96,-8.84 3.28,-1.68 13.57,-1.77 195,-1.75 184.48,0.02 191.69,0.09 195.54,1.88 2.2,1.02 34.15,27.39 71,58.59 161.83,137.02 173.06,146.72 175.64,151.76 l 2.18,4.25 -0.08,103.12 c -0.07,101.78 -0.1,103.18 -2.11,107.13 -4.26,8.35 -0.39,6.77 -76.13,31.02 -9.62,3.08 -17.86,5.9 -18.3,6.27 -0.89,0.74 -1.85,7.56 -7.73,54.96 -6.85,55.21 -7.91,62.12 -10.22,66.22 -3.67,6.54 -7.27,8.11 -38.54,16.76 -16.11,4.46 -30.43,8.53 -31.82,9.06 l -2.53,0.96 24.21,47.68 c 21.89,43.1 24.22,48.16 24.28,52.75 0.14,10.3 -6.99,18.54 -16.73,19.35 -6.84,0.57 -11.44,-0.95 -15.32,-5.05 -1.68,-1.78 -9.58,-16.06 -17.56,-31.73 -50.55,-99.33 -46,-89.73 -45.54,-96.09 0.45,-6.29 3.83,-12.57 8.32,-15.52 2.79,-1.82 13.37,-5 51.41,-15.44 13.99,-3.84 25.57,-7.12 25.74,-7.28 0.38,-0.39 3.04,-20.83 9.34,-71.67 2.75,-22.28 5.51,-42.39 6.11,-44.7 1.12,-4.24 5.9,-9.95 10.12,-12.11 2.06,-1.05 62.1,-20.64 78.01,-25.46 l 6.75,-2.04 v -51.33 -51.34 l -162.25,-0.26 -162.25,-0.26 -3.7,-2.3 c -12.97,-8.07 -11.78,-26.67 2.2,-34.33 2.08,-1.14 29.49,-1.41 164,-1.62 L 931.5,449 v -17.21 -17.22 l -11,-9.23 -11,-9.24 -84.59,-0.3 -84.58,-0.3 -3.99,-2.76 c -5.45,-3.78 -8.34,-9.21 -8.34,-15.67 0,-8.05 4.67,-15.49 11.32,-18 1.87,-0.72 23.16,-1.08 64,-1.1 l 61.18,-0.03 -2.57,-2.22 c -1.42,-1.22 -15.68,-13.36 -31.7,-26.97 L 801.11,304 702.3,303.98 c -94.33,-0.02 -98.99,-0.11 -102.92,-1.89 -7.96,-3.62 -12.72,-13.57 -10.46,-21.85 1.4,-5.13 5.81,-10.41 10.59,-12.68 3.16,-1.5 10.69,-1.65 79.49,-1.58 41.8,0.03 75.97,-0.28 75.94,-0.71 -0.04,-0.42 -4.16,-4.15 -9.16,-8.27 -5,-4.12 -15.78,-13.24 -23.96,-20.25 L 706.94,224 H 526.22 l -180.72,0.01 -47.02,34.74 c -25.86,19.11 -66.14,48.86 -89.5,66.1 -23.36,17.24 -42.62,31.73 -42.79,32.19 -0.18,0.47 41.38,0.88 92.35,0.93 102.09,0.09 95.29,-0.34 101.3,6.5 3.82,4.35 4.52,6.89 3.97,14.47 -0.52,7.14 -3.7,11.86 -10.1,14.96 -4.33,2.09 -4.65,2.1 -111.03,2.1 H 136 v 83.41 83.42 l 27.08,32.33 c 14.9,17.79 42.91,51.24 62.24,74.34 19.33,23.1 40.33,48.19 46.67,55.75 6.33,7.56 12.18,13.74 13.01,13.74 1.83,-0.01 34.31,-6.01 141.15,-26.05 75.87,-14.23 81.94,-15.23 85.79,-14.08 4.46,1.34 5.11,1.85 181.56,143.67 19.25,15.47 41.08,32.94 48.5,38.83 20.29,16.09 23.1,18.65 24.65,22.35 1.77,4.23 1.96,10.9 0.46,15.47 -1.33,4.02 -6.38,9.23 -10.43,10.76 -3.36,1.27 -11.3,1.29 -14.4,0.04 z M 275.12,669.29 c -7.45,-3.67 -11.68,-14.14 -9.14,-22.64 1.65,-5.53 7.53,-11.04 13.35,-12.5 6.09,-1.54 249.38,-1.64 254.89,-0.11 10.71,2.98 16.58,15.31 12.24,25.71 -1.98,4.75 -4.09,7.02 -8.67,9.36 -3.58,1.83 -8.05,1.89 -131.5,1.87 -117.17,-0.02 -128.07,-0.16 -131.17,-1.69 z m 317.85,-0.38 c -6.38,-3.7 -10.55,-12.4 -9.29,-19.35 0.98,-5.34 4.89,-10.95 9.47,-13.57 4.15,-2.38 5.22,-2.5 23.68,-2.82 19.2,-0.32 19.37,-0.31 24.75,2.33 12.23,5.98 14.61,21.36 4.76,30.69 -4.65,4.4 -7.17,4.81 -29.16,4.79 -19,-0.02 -20.97,-0.19 -24.21,-2.07 z m 104.86,0.08 c -10.69,-5.69 -12.69,-21.13 -3.88,-29.94 5.93,-5.93 7.06,-6.05 56.7,-6.05 44.62,0 44.96,0.02 49.33,2.25 2.42,1.24 5.76,3.95 7.42,6.04 2.47,3.11 3.07,4.89 3.36,10 0.42,7.45 -1.4,11.58 -7.1,16.14 l -3.84,3.07 -49.16,0.22 c -47.08,0.21 -49.32,0.14 -52.83,-1.73 z M 260.7,578.61 c -10.95,-3.03 -16.79,-15.28 -12.35,-25.91 1.62,-3.88 7.64,-9.38 11.42,-10.44 3.56,-0.99 87.9,-0.99 91.46,0 3.78,1.06 9.8,6.56 11.42,10.44 1.62,3.88 1.76,11.09 0.29,14.98 -1.32,3.5 -5.48,7.96 -9.44,10.16 -2.64,1.46 -8.03,1.69 -45.5,1.88 -32.81,0.17 -43.59,-0.08 -47.3,-1.11 z m 173.1,0.46 c -8.7,-1.73 -15.18,-9.62 -15.24,-18.57 -0.07,-9.79 5.76,-16.7 15.63,-18.53 3.56,-0.66 45.34,-0.92 118.9,-0.74 111.36,0.27 113.47,0.31 116.8,2.27 1.87,1.1 4.75,3.67 6.4,5.71 6.94,8.59 3.59,22.97 -6.66,28.58 -2.9,1.58 -11.55,1.72 -117.63,1.86 -62.98,0.08 -116.16,-0.18 -118.2,-0.58 z m 314.7,0.47 c -0.55,-0.2 -2.23,-0.64 -3.73,-0.97 -3.67,-0.8 -9.75,-6.28 -11.42,-10.27 -0.74,-1.78 -1.35,-5.29 -1.35,-7.8 0,-2.51 0.61,-6.02 1.35,-7.8 1.62,-3.88 7.64,-9.38 11.42,-10.44 3.56,-0.99 90.9,-0.99 94.46,0 3.78,1.06 9.8,6.56 11.42,10.44 0.74,1.78 1.35,5.55 1.35,8.38 0,6.85 -3.12,12.31 -8.99,15.77 l -4.51,2.65 -44.5,0.2 c -24.47,0.11 -44.95,0.04 -45.5,-0.16 z m -549,-92.87 c -8.86,-3.46 -13,-10.09 -12.3,-19.71 0.48,-6.69 3.8,-11.86 9.91,-15.46 3.35,-1.98 5.19,-2 169.39,-2 91.3,0 167.2,0.34 168.67,0.75 4.02,1.13 8.89,5.67 10.95,10.21 4.82,10.6 -0.96,23.46 -11.9,26.5 -5.62,1.56 -330.71,1.28 -334.72,-0.29 z m 235.51,-92.26 c -13.68,-5.94 -16.13,-24.11 -4.45,-33.03 l 3.78,-2.88 108.85,-0.26 c 106.96,-0.26 108.91,-0.23 112.74,1.72 13.83,7.06 12.97,27.5 -1.43,34.15 -3.81,1.76 -9.04,1.85 -110,1.83 -92.45,-0.02 -106.45,-0.21 -109.49,-1.53 z m -98.56,-92.89 c -7.4,-3.71 -9.95,-8.1 -9.95,-17.1 0,-6.56 0.28,-7.58 3.03,-10.97 1.66,-2.06 4.58,-4.57 6.48,-5.59 3.3,-1.78 7.91,-1.86 101.03,-1.86 h 97.57 l 4.55,2.89 c 12.64,8.01 11.35,26.17 -2.37,33.21 -3.57,1.83 -7.31,1.9 -99.55,1.9 h -95.85 z"
       fill="rgba(0,0,0,1)"
       id="path3414"
       style="fill:#ffffff" />
  </g>
</svg>
